<svg width="46" height="14" viewBox="0 0 46 14" fill="none" xmlns="http://www.w3.org/2000/svg">
<path d="M0.388587 0.839674C0.818841 0.941576 1.2038 1.02083 1.54348 1.07745C1.89447 1.12274 2.18886 1.1567 2.42663 1.17935C2.70969 1.21332 2.95879 1.22464 3.17391 1.21332C3.44565 1.20199 3.78533 1.16236 4.19293 1.09443C4.60054 1.02649 5.0308 0.95856 5.4837 0.890625C5.93659 0.82269 6.38383 0.766078 6.82541 0.720788C7.26698 0.675498 7.65195 0.669837 7.9803 0.703805C8.30865 0.737772 8.65399 0.817029 9.0163 0.941576C9.37862 1.0548 9.7183 1.21332 10.0353 1.41712C10.3524 1.6096 10.6241 1.84737 10.8505 2.13043C11.0883 2.4135 11.2355 2.74185 11.2921 3.11549C11.3487 3.47781 11.3148 3.86843 11.1902 4.28736C11.0657 4.69497 10.8675 5.09692 10.5958 5.49321C10.324 5.87817 9.98437 6.23483 9.57677 6.56318C9.16916 6.89153 8.71626 7.15761 8.21807 7.36141C7.82178 7.50861 7.39153 7.62183 6.92731 7.70109C6.53102 7.76902 6.0668 7.81431 5.53465 7.83696C5.01381 7.84828 4.45901 7.79167 3.87024 7.66712C3.79099 7.99547 3.7457 8.30118 3.73437 8.58424C3.73437 8.85598 3.7457 9.09941 3.76834 9.31454C3.80231 9.56363 3.8476 9.79008 3.90421 9.99389C3.97215 10.1977 4.05707 10.4355 4.15897 10.7072C4.24955 10.9337 4.35145 11.2111 4.46467 11.5394C4.58922 11.8564 4.73641 12.2131 4.90625 12.6094C4.70245 12.6094 4.5043 12.615 4.31182 12.6264C4.11934 12.6264 3.94384 12.632 3.78533 12.6433C3.60417 12.6547 3.43433 12.666 3.27582 12.6773C3.09466 12.6886 2.89085 12.7113 2.6644 12.7452C2.47192 12.7679 2.22849 12.8019 1.9341 12.8471C1.65104 12.8924 1.32835 12.949 0.966033 13.017C1.2038 12.6773 1.39062 12.3659 1.52649 12.0829C1.67369 11.7885 1.78125 11.5337 1.84918 11.3186C1.92844 11.0695 1.97939 10.8431 2.00204 10.6393C2.01336 10.4694 2.01336 10.1694 2.00204 9.73913C2.00204 9.30888 1.99638 8.81069 1.98505 8.24457C1.97373 7.67844 1.95675 7.08401 1.9341 6.46128C1.91146 5.83854 1.88315 5.25543 1.84918 4.71196C1.81522 4.15716 1.77559 3.68161 1.7303 3.28533C1.69633 2.88904 1.66236 2.62862 1.6284 2.50408C1.58311 2.35688 1.50385 2.19837 1.39062 2.02853C1.30005 1.88134 1.16984 1.7115 1 1.51902C0.841486 1.31522 0.637681 1.08877 0.388587 0.839674ZM3.90421 4.18546C3.89289 4.29869 3.88723 4.41757 3.88723 4.54212C3.88723 4.77989 3.90421 5.0856 3.93818 5.45924C4.01744 5.65172 4.11368 5.81024 4.2269 5.93478C4.35145 6.05933 4.48166 6.15557 4.61753 6.22351C4.76472 6.29144 4.91191 6.33673 5.0591 6.35938C5.2063 6.38202 5.35349 6.39334 5.50068 6.39334C5.84035 6.38202 6.19701 6.30276 6.57065 6.15557C7.06884 5.94044 7.41984 5.63474 7.62364 5.23845C7.82745 4.84217 7.93501 4.43456 7.94633 4.01563C7.95765 3.59669 7.88406 3.21173 7.72554 2.86073C7.57835 2.50974 7.39719 2.27197 7.18207 2.14742C7.00091 2.06816 6.7688 2.03419 6.48573 2.04552C6.23664 2.05684 5.92527 2.11911 5.55163 2.23234C5.17799 2.34556 4.71943 2.54937 4.17595 2.84375C4.11934 3.04755 4.07405 3.22871 4.04008 3.38723C4.00611 3.54574 3.97781 3.68727 3.95516 3.81182C3.93252 3.94769 3.91553 4.07224 3.90421 4.18546ZM12.1583 1.50204C12.7244 1.53601 13.2 1.56431 13.5849 1.58696C13.9812 1.59828 14.3096 1.6096 14.57 1.62092C14.8644 1.63225 15.1135 1.63225 15.3173 1.62092C15.5211 1.6096 15.7985 1.5813 16.1495 1.53601C16.4438 1.50204 16.8345 1.45109 17.3213 1.38315C17.8195 1.3039 18.4366 1.20199 19.1726 1.07745C18.9121 1.33786 18.7083 1.57563 18.5611 1.79076C18.4253 1.99457 18.3177 2.17006 18.2385 2.31726C18.1479 2.49842 18.0856 2.65127 18.0516 2.77582C18.029 2.88904 18.0516 3.1721 18.1196 3.625C18.1875 4.0779 18.2837 4.61572 18.4083 5.23845C18.5328 5.84986 18.6687 6.50657 18.8159 7.20856C18.9631 7.89923 19.1103 8.55027 19.2575 9.16168C19.4047 9.76178 19.5349 10.2769 19.6481 10.7072C19.7726 11.1261 19.8632 11.3752 19.9198 11.4545C20.0897 11.6923 20.1972 11.8508 20.2425 11.93C20.2878 11.998 20.3671 12.0602 20.4803 12.1168C20.5256 12.1395 20.5992 12.1735 20.7011 12.2188C20.7917 12.264 20.9106 12.3207 21.0577 12.3886C21.2163 12.4565 21.4144 12.5358 21.6522 12.6264C21.2106 12.649 20.8313 12.666 20.5143 12.6773C20.1972 12.6773 19.9368 12.683 19.733 12.6943C19.4952 12.7056 19.2914 12.7169 19.1216 12.7283C18.9518 12.7283 18.748 12.7396 18.5102 12.7622C18.3064 12.7849 18.0403 12.8075 17.712 12.8302C17.3949 12.8528 17.0213 12.8755 16.591 12.8981C16.8175 12.7396 16.9986 12.5981 17.1345 12.4735C17.2817 12.3376 17.3949 12.2244 17.4742 12.1338C17.5648 12.0206 17.627 11.9187 17.661 11.8281C17.6837 11.7262 17.7006 11.5734 17.712 11.3696C17.7233 11.1884 17.7233 10.9506 17.712 10.6563C17.7006 10.3505 17.6723 9.95426 17.627 9.46739L13.1603 9.92595C13.0471 10.1184 12.9622 10.2883 12.9056 10.4355C12.849 10.5713 12.8093 10.6902 12.7867 10.7921C12.7527 10.9167 12.7414 11.0186 12.7527 11.0978C12.7754 11.1884 12.815 11.296 12.8716 11.4205C12.9282 11.5337 13.0075 11.6696 13.1094 11.8281C13.2226 11.9753 13.3868 12.1508 13.6019 12.3546C13.3188 12.3433 13.0301 12.3376 12.7357 12.3376C12.4414 12.3376 12.1696 12.3433 11.9205 12.3546C11.6261 12.3659 11.3374 12.3773 11.0543 12.3886C10.7713 12.3999 10.4486 12.4169 10.0863 12.4395C9.78057 12.4622 9.42391 12.4905 9.0163 12.5245C8.59737 12.5471 8.15014 12.5811 7.67459 12.6264C7.96898 12.4905 8.21807 12.3546 8.42188 12.2188C8.62568 12.0716 8.79552 11.9357 8.93139 11.8111C9.0899 11.6753 9.22577 11.5451 9.339 11.4205C9.41825 11.3073 9.57677 11.0469 9.81454 10.6393C10.0523 10.2203 10.3184 9.72781 10.6128 9.16168C10.9185 8.59556 11.2355 7.98981 11.5639 7.34443C11.9035 6.69905 12.2092 6.0933 12.481 5.52717C12.7527 4.94973 12.9735 4.45154 13.1433 4.03261C13.3132 3.61368 13.3981 3.34194 13.3981 3.21739C13.3755 3.0702 13.3188 2.90602 13.2283 2.72486C13.149 2.56635 13.0245 2.38519 12.8546 2.18139C12.6961 1.97758 12.464 1.75113 12.1583 1.50204ZM17.4232 8.2106C17.3553 7.81431 17.293 7.47464 17.2364 7.19158C17.1798 6.89719 17.1345 6.65376 17.1005 6.46128C17.0553 6.23483 17.0213 6.03668 16.9986 5.86685C16.9647 5.70833 16.925 5.50453 16.8798 5.25543C16.8345 5.04031 16.7779 4.77423 16.7099 4.4572C16.6533 4.12885 16.5797 3.73822 16.4891 3.28533C15.8438 4.57609 15.3399 5.57813 14.9776 6.29144C14.6266 6.99343 14.3718 7.50861 14.2133 7.83696C14.0208 8.22192 13.9133 8.44837 13.8906 8.5163L17.4232 8.2106ZM19.5462 1.06046C19.9198 1.10575 20.2595 1.13972 20.5652 1.16236C20.8596 1.18501 21.1144 1.20765 21.3295 1.2303C21.5786 1.25294 21.7994 1.26993 21.9918 1.28125C22.1957 1.28125 22.4561 1.27559 22.7731 1.26427C23.0448 1.25294 23.3902 1.23596 23.8091 1.21332C24.228 1.19067 24.7432 1.15104 25.3546 1.09443C25.0602 1.26427 24.8168 1.4341 24.6243 1.60394C24.4432 1.77378 24.3016 1.92663 24.1997 2.0625C24.0752 2.22101 23.9846 2.37953 23.928 2.53804C23.894 2.75317 23.9053 3.1721 23.962 3.79484C23.9846 4.05525 24.0186 4.37794 24.0639 4.76291C24.1205 5.13655 24.1884 5.58379 24.2677 6.10462C24.3582 6.61413 24.4658 7.2029 24.5904 7.87092C24.7262 8.53895 24.8791 9.29755 25.0489 10.1467C25.2754 9.50136 25.4622 8.92957 25.6094 8.43139C25.7566 7.92188 25.8811 7.48596 25.983 7.12364C26.0962 6.71603 26.1925 6.35371 26.2717 6.03668C26.351 5.70833 26.4472 5.28374 26.5605 4.76291C26.651 4.32133 26.7699 3.74955 26.9171 3.04755C27.0643 2.34556 27.2455 1.47939 27.4606 0.449049L28.072 0.533968C28.1286 1.33786 28.1852 2.04552 28.2418 2.65693C28.3098 3.26834 28.3664 3.78918 28.4117 4.21943C28.457 4.71762 28.5023 5.14787 28.5476 5.51019C28.5928 5.83854 28.6608 6.21784 28.7514 6.6481C28.8306 7.01042 28.9325 7.45765 29.0571 7.98981C29.1816 8.51064 29.3458 9.09941 29.5496 9.75611C29.7534 8.95222 29.9346 8.23324 30.0931 7.59918C30.2629 6.96513 30.4044 6.40466 30.5177 5.9178C30.6422 5.43093 30.7441 5.012 30.8234 4.66101C30.9139 4.31001 30.9875 4.01563 31.0442 3.77785C31.1687 3.21173 31.2423 2.83243 31.2649 2.63995C31.2536 2.42482 31.2027 2.21535 31.1121 2.01155C31.0328 1.83039 30.9083 1.63225 30.7385 1.41712C30.5686 1.20199 30.3195 0.992527 29.9912 0.788723C30.6818 0.811368 31.2423 0.828352 31.6726 0.839674C32.1141 0.839674 32.4651 0.839674 32.7255 0.839674H33.4049H34.0163C34.2428 0.839674 34.5371 0.839674 34.8995 0.839674C35.2731 0.828352 35.7486 0.811368 36.3261 0.788723C35.8279 1.04914 35.426 1.28691 35.1202 1.50204C34.8145 1.71717 34.5768 1.89832 34.4069 2.04552C34.2031 2.22668 34.0559 2.37953 33.9654 2.50408C33.8748 2.73053 33.7276 3.24004 33.5238 4.03261C33.4332 4.37228 33.3313 4.79688 33.2181 5.30639C33.1048 5.80457 32.969 6.40466 32.8105 7.10666C32.6633 7.80865 32.4934 8.62953 32.301 9.56929C32.1085 10.4977 31.8933 11.562 31.6556 12.7622L28.7174 12.4565L27.4606 7.17459C27.2681 8.137 27.1153 8.91825 27.002 9.51834C26.8888 10.1071 26.8039 10.5657 26.7473 10.894C26.6793 11.2903 26.6397 11.579 26.6284 11.7602C26.6171 11.9187 26.6058 12.0716 26.5944 12.2188C26.5831 12.3433 26.5661 12.4792 26.5435 12.6264C26.5322 12.7736 26.5152 12.9094 26.4925 13.034H23.4864C23.192 11.7432 22.926 10.6053 22.6882 9.62024C22.4617 8.62387 22.2579 7.75204 22.0768 7.00476C21.8956 6.25747 21.7371 5.62341 21.6012 5.10258C21.4767 4.58175 21.3635 4.14583 21.2615 3.79484C21.0351 2.97962 20.8709 2.47577 20.769 2.28329C20.6898 2.19271 20.5879 2.08515 20.4633 1.9606C20.3614 1.8587 20.2369 1.73415 20.0897 1.58696C19.9312 1.42844 19.75 1.25294 19.5462 1.06046ZM45.2425 0.567935C45.084 0.930254 44.9425 1.24728 44.8179 1.51902C44.6934 1.79076 44.5858 2.02287 44.4952 2.21535C44.3933 2.43048 44.3084 2.62296 44.2405 2.7928C44.1839 2.91735 44.1103 3.08718 44.0197 3.30231C43.9291 3.49479 43.8159 3.74955 43.68 4.06658C43.5555 4.37228 43.3913 4.76857 43.1875 5.25543C43.0856 4.8365 42.961 4.46852 42.8139 4.15149C42.6667 3.83447 42.5082 3.55707 42.3383 3.31929C42.1685 3.08152 41.9873 2.88904 41.7948 2.74185C41.6137 2.58333 41.4325 2.45313 41.2514 2.35122C40.8324 2.12477 40.3909 2.00023 39.9266 1.97758C39.3152 2.01155 38.834 2.11345 38.483 2.28329C38.1433 2.4418 37.8942 2.62862 37.7357 2.84375C37.5772 3.04755 37.4923 3.26268 37.481 3.48913C37.4697 3.70426 37.498 3.88542 37.5659 4.03261C37.6225 4.16848 37.8207 4.32699 38.1603 4.50815C38.5113 4.68931 38.9303 4.89878 39.4171 5.13655C39.9153 5.363 40.4475 5.62341 41.0136 5.9178C41.5797 6.20086 42.1005 6.51789 42.5761 6.86889C43.063 7.20856 43.4706 7.5822 43.7989 7.98981C44.1386 8.3861 44.3254 8.81069 44.3594 9.26359C44.3933 9.84103 44.3877 10.3619 44.3424 10.8261C44.2971 11.2903 44.1386 11.6866 43.8668 12.0149C43.5951 12.3433 43.1705 12.6037 42.5931 12.7962C42.0269 12.9887 41.24 13.1076 40.2323 13.1529C39.1907 13.1981 38.3358 13.1415 37.6678 12.983C36.9998 12.8245 36.4563 12.6094 36.0374 12.3376C35.6298 12.0659 35.324 11.7659 35.1202 11.4375C34.9278 11.1091 34.7862 10.7978 34.6957 10.5034C34.6051 10.1977 34.5428 9.93727 34.5088 9.72215C34.4749 9.4957 34.4183 9.35983 34.339 9.31454C34.2484 9.25793 34.1578 9.20697 34.0673 9.16168C33.988 9.1164 33.9031 9.07677 33.8125 9.0428C33.7219 8.99751 33.6313 8.95788 33.5408 8.92391L38.483 8.12568C38.2 8.35213 37.9792 8.56159 37.8207 8.75408C37.6735 8.94656 37.5602 9.1164 37.481 9.26359C37.3904 9.43342 37.3281 9.59194 37.2942 9.73913C37.2715 9.89764 37.3225 10.0958 37.447 10.3336C37.5716 10.5713 37.7414 10.8034 37.9565 11.0299C38.183 11.245 38.4434 11.4262 38.7378 11.5734C39.0322 11.7206 39.3379 11.7828 39.6549 11.7602C40.0512 11.7262 40.3739 11.63 40.623 11.4715C40.8721 11.3016 41.0589 11.0922 41.1834 10.8431C41.3193 10.594 41.3985 10.3222 41.4212 10.0279C41.4438 9.73347 41.4155 9.44475 41.3363 9.16168C41.2683 8.8673 41.1551 8.59556 40.9966 8.34647C40.8381 8.08605 40.6513 7.87092 40.4361 7.70109C40.2437 7.56522 39.9436 7.43501 39.536 7.31046C39.1397 7.18591 38.6925 7.05005 38.1943 6.90285C37.7074 6.75566 37.2036 6.58582 36.6827 6.39334C36.1732 6.20086 35.709 5.96309 35.2901 5.68003C34.8825 5.39697 34.5541 5.06295 34.305 4.67799C34.0673 4.29303 33.9767 3.8288 34.0333 3.28533C34.0786 2.82111 34.2258 2.43614 34.4749 2.13043C34.7353 1.81341 35.058 1.56431 35.4429 1.38315C35.8392 1.19067 36.2751 1.04914 36.7507 0.95856C37.2375 0.86798 37.7301 0.817029 38.2283 0.805707C38.7378 0.783062 39.236 0.788723 39.7228 0.82269C40.221 0.856658 40.6683 0.896286 41.0645 0.941576C41.4608 0.986866 41.7948 1.03216 42.0666 1.07745C42.3496 1.11141 42.5251 1.13406 42.5931 1.14538C42.8875 1.16803 43.1818 1.16236 43.4762 1.1284C43.7366 1.10575 44.0197 1.0548 44.3254 0.975544C44.6424 0.884964 44.9481 0.749094 45.2425 0.567935Z" fill="#6A3821"/>
</svg>
