<svg width="400" height="400" viewBox="0 0 400 400" fill="none" xmlns="http://www.w3.org/2000/svg">
<path d="M144.219 10.125C139 11.3438 135.062 13.625 130.594 18.0938C126.969 21.6875 124.375 25.3438 121.875 30.3125C106.969 60.1251 112 109.313 132.906 137.5C135.75 141.344 140.687 146.406 144.062 148.938C155.125 157.281 167.562 157.719 177.531 150.125C187.75 142.313 194.75 127.25 197.406 107.344C198.062 102.219 198.187 86.3438 197.562 81.0938C195 59.1563 188.469 41.0001 178.25 27.2813C175.687 23.875 170.656 18.75 167.5 16.3438C164.562 14.125 159 11.25 156.094 10.4688C153.5 9.75004 146.656 9.56254 144.219 10.125Z" fill="#67A196"/>
<path d="M267.062 16.4375C257.343 18.3438 247.187 25.7813 238.781 37.0938C227.968 51.6251 220.656 70.8438 217.906 92.0313C217.031 98.7813 217.124 113.844 218.062 119.969C220.249 133.938 224.906 144.625 231.874 151.563C237.843 157.563 245.343 160.344 252.968 159.438C271.124 157.188 289.031 137.375 298.593 108.938C306.531 85.3438 307.374 60.5001 300.874 41.5626C294.531 23.0938 281.656 13.5313 267.062 16.4375Z" fill="#67A196"/>
<path d="M65.4691 118.438C52.6878 120.469 43.0628 130.781 38.7191 147.156C36.2503 156.563 35.9066 169.531 37.8441 180.938C42.3128 207.5 57.6878 231.906 75.8753 241.344C85.1878 246.156 94.4691 247 102.438 243.688C114.188 238.813 121.907 226.188 124.438 207.656C124.938 203.938 124.938 192.906 124.407 188.594C120.344 154.156 99.1253 123.938 75.5316 118.906C72.7503 118.313 67.8128 118.094 65.4691 118.438Z" fill="#67A196"/>
<path d="M330.312 143.75C319.062 146.156 308.031 154.063 298.875 166.313C288.937 179.625 282.25 197 280.312 214.5C279.812 219.063 279.906 228.875 280.468 233.281C284.281 262.906 304.406 277.125 327.187 266.375C339.406 260.594 350.468 248.688 358.375 232.844C373.375 202.844 372.406 167.688 356.093 151.406C349.218 144.531 339.75 141.719 330.312 143.75Z" fill="#67A196"/>
<path d="M194.534 199.344C173.846 203.031 147.752 224.75 124.627 257.5C106.534 283.156 93.7836 310.781 89.9711 332.656C89.0649 337.906 88.9711 347.281 89.7836 350.875C91.0649 356.469 93.2211 360.156 97.4086 364.063C104.409 370.531 112.815 374.344 123.346 375.813C128.815 376.563 139.877 376.281 146.909 375.219C156.315 373.75 164.252 371.844 182.034 366.719C199.221 361.781 204.034 360.75 208.784 361.063C214.815 361.469 219.346 362.938 232.346 368.656C241.659 372.75 246.846 374.688 251.284 375.781C267.846 379.781 281.784 374.563 296.127 359C300.409 354.375 301.721 352.125 303.065 347.219C303.815 344.406 303.877 343.781 303.877 337.188C303.877 331.219 303.784 329.531 303.159 326.094C299.471 305.25 288.502 280.063 272.659 256.094C253.815 227.594 231.69 207.063 213.221 200.969C206.502 198.75 200.784 198.25 194.534 199.344Z" fill="#67A196"/>
</svg>
